<?xml version="1.0" encoding="iso-8859-1"?>
<!-- Generator: Adobe Illustrator 18.1.1, SVG Export Plug-In . SVG Version: 6.00 Build 0)  -->
<svg version="1.1" id="Capa_1" xmlns="http://www.w3.org/2000/svg" xmlns:xlink="http://www.w3.org/1999/xlink" x="0px" y="0px"
	 viewBox="0 0 46.986 46.986" style="enable-background:new 0 0 46.986 46.986;" xml:space="preserve">
<g>
	<g>
		<path d="M2.434,26.4c0-0.794-0.802-1.438-1.785-1.438v2.877C1.632,27.838,2.434,27.193,2.434,26.4z"/>
		<path d="M39.315,7.055H22.053h-4.474H7.563v2.558h2.348c-1.846,1.14-4.479,5.113-4.479,5.113S0.238,24.881,3.516,29.218
			c8.311-0.214,7.67,7.671,7.67,7.671h20.5c-0.264-0.691-0.413-1.438-0.413-2.22c0-3.45,2.807-6.258,6.259-6.258
			c3.45,0,6.258,2.809,6.258,6.258c0,0.276-0.023,0.547-0.059,0.813c1.967-1.389,3.255-3.676,3.255-6.266V14.725
			C46.986,10.489,43.553,7.055,39.315,7.055z M20.545,34.669h-5.646c0,0,0.971-7.762-5.647-9.708c0,0,0.212-10.116,5.114-14.012
			h6.179L20.545,34.669L20.545,34.669z M34.944,24.961c-6.618,1.946-5.648,9.708-5.648,9.708H23.65V10.95h11.294V24.961z"/>
		<path d="M8.559,30.943c-2.13-1.827-4.854-1.52-4.969-1.508l0.131,1.072C1.595,30.989,0,32.89,0,35.159
			c0,2.631,2.143,4.772,4.774,4.772c2.52,0,4.585-1.966,4.757-4.441c0.072,0.444,0.121,0.914,0.139,1.418l1.276-0.039
			C10.863,34.226,10.059,32.232,8.559,30.943z M4.774,38.653c-1.928,0-3.495-1.566-3.495-3.494c0-1.927,1.567-3.494,3.495-3.494
			s3.492,1.568,3.492,3.494C8.267,37.085,6.702,38.653,4.774,38.653z"/>
		<path d="M37.347,29.596c-2.797,0-5.071,2.275-5.071,5.073c0,2.799,2.274,5.074,5.071,5.074s5.073-2.275,5.073-5.074
			C42.42,31.871,40.143,29.596,37.347,29.596z M37.347,38.464c-2.091,0-3.794-1.702-3.794-3.795s1.703-3.794,3.794-3.794
			c2.094,0,3.797,1.701,3.797,3.794C41.143,36.762,39.439,38.464,37.347,38.464z"/>
	</g>
	<g>
	</g>
	<g>
	</g>
	<g>
	</g>
	<g>
	</g>
	<g>
	</g>
	<g>
	</g>
	<g>
	</g>
	<g>
	</g>
	<g>
	</g>
	<g>
	</g>
	<g>
	</g>
	<g>
	</g>
	<g>
	</g>
	<g>
	</g>
	<g>
	</g>
</g>
<g>
</g>
<g>
</g>
<g>
</g>
<g>
</g>
<g>
</g>
<g>
</g>
<g>
</g>
<g>
</g>
<g>
</g>
<g>
</g>
<g>
</g>
<g>
</g>
<g>
</g>
<g>
</g>
<g>
</g>
</svg>
